<?xml version="1.0" encoding="utf-8"?>
<!-- Generator: Adobe Illustrator 26.5.0, SVG Export Plug-In . SVG Version: 6.00 Build 0)  -->
<svg version="1.1" id="Layer_1" xmlns="http://www.w3.org/2000/svg" xmlns:xlink="http://www.w3.org/1999/xlink" x="0px" y="0px"
	 viewBox="0 0 368.5 198.43" style="enable-background:new 0 0 368.5 198.43;" xml:space="preserve">
<style type="text/css">
	.st0{fill:#FFF042;}
	.st1{fill:none;}
	.st2{fill:#6A3677;}
</style>
<g>
	<path class="st0" d="M41.08,21.38c0-9.39-7.61-17-17-17s-17,7.61-17,17s7.61,17,17,17S41.08,30.77,41.08,21.38z M24.09,27.05
		c-3.13,0-5.67-2.54-5.67-5.67s2.54-5.67,5.67-5.67s5.67,2.54,5.67,5.67C29.75,24.51,27.22,27.05,24.09,27.05z"/>
	<path class="st1" d="M361.42,177.05c0-9.39-7.61-17-17-17s-17,7.61-17,17s7.61,17,17,17S361.42,186.44,361.42,177.05z
		 M344.42,182.71c-3.13,0-5.67-2.54-5.67-5.67s2.54-5.67,5.67-5.67s5.67,2.54,5.67,5.67C350.09,180.18,347.55,182.71,344.42,182.71z
		"/>
	<path class="st2" d="M322.75,66.46c-1.46-1.19-3.16-2.19-5.09-3.02s-3.97-1.57-6.12-2.23c-2.15-0.66-4.08-1.32-5.79-1.99
		c-1.71-0.66-3.05-1.5-4.01-2.52c-0.97-1.02-1.45-2.38-1.45-4.09c0-1.38,0.39-2.56,1.16-3.56c0.77-0.99,1.87-1.74,3.31-2.23
		c1.43-0.5,3.14-0.66,5.13-0.66c8.16,0,14.7,5.71,14.7,5.71V40.95c0,0-7.78-3.72-15.78-3.72c-3.47,0-6.49,0.47-9.06,1.41
		c-2.56,0.94-4.65,2.21-6.25,3.81c-1.6,1.6-2.79,3.39-3.56,5.38s-1.16,4-1.16,6.04c0,2.54,0.38,4.67,1.16,6.41
		c0.77,1.74,1.81,3.18,3.1,4.34c1.3,1.16,2.76,2.11,4.38,2.85c1.63,0.74,3.29,1.42,5,2.03c2.43,0.83,4.66,1.63,6.7,2.4
		c2.04,0.77,3.68,1.68,4.92,2.73c1.24,1.05,1.86,2.43,1.86,4.14c0,2.21-0.76,3.9-2.27,5.09c-1.52,1.19-3.76,1.78-6.74,1.78
		c-3.2,0-6.37-0.54-9.51-1.61c-3.14-1.08-6.29-2.87-8.6-4.75V90.2c0,0,9.08,4.38,19.27,4.38c4.36,0,7.97-0.79,10.84-2.36
		c2.87-1.57,5-3.67,6.41-6.29s2.11-5.47,2.11-8.56c0-2.54-0.41-4.69-1.24-6.45C325.36,69.12,324.21,67.65,322.75,66.46z"/>
	<polygon class="st2" points="75.08,53.99 91.74,77.34 91.74,77.34 108.39,53.99 108.39,93.55 119.73,93.55 119.73,38.38 
		119.53,38.38 119.53,38.38 108.39,38.38 91.74,61.73 91.74,61.73 75.08,38.38 63.94,38.38 63.75,38.38 63.75,93.55 75.08,93.55 	
		"/>
	<rect x="41.08" y="38.38" class="st2" width="11.33" height="55.17"/>
	<polygon class="st2" points="280.3,93.55 280.3,84.48 254.8,84.48 254.8,70.5 274.63,70.5 274.63,61.43 254.8,61.43 254.8,47.44 
		280.3,47.44 280.3,38.38 243.47,38.38 243.47,93.55 254.8,93.55 	"/>
	<path class="st2" d="M196.65,91.56c3.97,1.99,8.71,2.98,14.23,2.98c3.69,0,7.33-0.47,10.92-1.41c3.58-0.94,7.03-2.29,10.34-4.05
		V61.43h-23.4v9.07h12.07v13.54c-1.24,0.5-2.66,0.87-4.18,1.12s-3.13,0.37-4.84,0.37c-3.36,0-6.24-0.65-8.64-1.94
		c-2.4-1.3-4.23-3.38-5.5-6.24c-1.27-2.87-1.9-6.67-1.9-11.41c0-4.8,0.62-8.63,1.86-11.5s3.09-4.93,5.54-6.2s5.47-1.9,9.06-1.9
		c3.03,0,5.96,0.5,8.77,1.49c2.63,0.93,5.41,2.57,8.33,4.05V40.96c-2.79-1.12-5.68-2.03-8.66-2.65c-3.2-0.66-6.48-0.99-9.84-0.99
		c-5.46,0-10.17,1.01-14.14,3.02c-3.97,2.01-7.02,5.14-9.14,9.39c-2.12,4.25-3.18,9.65-3.18,16.21c0,6.67,1.06,12.12,3.18,16.34
		C189.64,86.48,192.68,89.58,196.65,91.56z"/>
	<path class="st2" d="M144.52,79.56h20.69l5.37,13.99h10.92l-21.17-55.17h-10.92l-21.17,55.17h10.92L144.52,79.56z M154.86,52.61
		l6.87,17.89H148L154.86,52.61z"/>
	<g>
		<rect x="313.26" y="104.88" class="st2" width="11.33" height="55.17"/>
		<path class="st2" d="M215.92,165.72c-3.13,0-5.67,2.54-5.67,5.67s2.54,5.67,5.67,5.67s5.67-2.54,5.67-5.67
			S219.05,165.72,215.92,165.72z"/>
		<path class="st2" d="M198.93,165.72c-3.13,0-5.67,2.54-5.67,5.67s2.54,5.67,5.67,5.67s5.67-2.54,5.67-5.67
			S202.06,165.72,198.93,165.72z"/>
		<path class="st2" d="M127.09,165.72c-3.13,0-5.67,2.54-5.67,5.67s2.54,5.67,5.67,5.67s5.67-2.54,5.67-5.67
			S130.22,165.72,127.09,165.72z"/>
		<path class="st2" d="M46.75,122.66c3.13,0,5.67-2.54,5.67-5.67s-2.54-5.67-5.67-5.67s-5.67,2.54-5.67,5.67
			C41.08,120.12,43.62,122.66,46.75,122.66z"/>
		<path class="st2" d="M287.76,128.32c-9.39,0-17,7.61-17,17c0,1.99,0.34,3.89,0.97,5.67h-58.64v-22.66h-11.33v22.66h-57.67v-5.67
			c0-10.51-5.45-17-17-17c-9.39,0-17,4.14-17,4.14v10.2c0,0,5.28-4.14,14.67-4.14c5.6,0,8,3.56,8,7.66v4.8H52.42v-22.66H41.09v26.22
			v4.65c0,4.1-2.4,7.66-8,7.66c-1.18,0-2.29-0.07-3.33-0.18v9.9c1.77,0.29,3.68,0.48,5.67,0.48c11.55,0,17-6.49,17-17l0,0h226.86
			c2.5,1.44,5.39,2.27,8.48,2.27c9.39,0,17-7.61,17-17S297.15,128.32,287.76,128.32z M287.76,150.98c-3.13,0-5.67-2.54-5.67-5.67
			s2.54-5.67,5.67-5.67s5.67,2.54,5.67,5.67S290.89,150.98,287.76,150.98z"/>
	</g>
</g>
</svg>
