<?xml version="1.0" encoding="UTF-8" standalone="no"?>
<svg
   width="290"
   zoomAndPan="magnify"
   viewBox="0 0 217.5 74.999997"
   height="100"
   preserveAspectRatio="xMidYMid meet"
   version="1.2"
   id="svg40"
   sodipodi:docname="Clover-Tower_2-line_no-bg.svg"
   inkscape:version="1.4 (86a8ad7, 2024-10-11)"
   xmlns:inkscape="http://www.inkscape.org/namespaces/inkscape"
   xmlns:sodipodi="http://sodipodi.sourceforge.net/DTD/sodipodi-0.dtd"
   xmlns="http://www.w3.org/2000/svg"
   xmlns:svg="http://www.w3.org/2000/svg">
  <sodipodi:namedview
     id="namedview40"
     pagecolor="#ffffff"
     bordercolor="#000000"
     borderopacity="0.25"
     inkscape:showpageshadow="2"
     inkscape:pageopacity="0.0"
     inkscape:pagecheckerboard="0"
     inkscape:deskcolor="#d1d1d1"
     showgrid="false"
     inkscape:zoom="2"
     inkscape:cx="152.75"
     inkscape:cy="30"
     inkscape:window-width="1440"
     inkscape:window-height="830"
     inkscape:window-x="-6"
     inkscape:window-y="-6"
     inkscape:window-maximized="1"
     inkscape:current-layer="svg40" />
  <defs
     id="defs9">
    <clipPath
       id="81838fe0b3">
      <path
         d="M 0 0.0859375 L 57 0.0859375 L 57 57 L 0 57 Z M 0 0.0859375 "
         id="path1" />
    </clipPath>
    <clipPath
       id="c88b2df4ad">
      <path
         d="M -14.203125 28.488281 L 28.125 -13.84375 L 70.453125 28.488281 L 28.125 70.816406 Z M -14.203125 28.488281 "
         id="path2" />
    </clipPath>
    <clipPath
       id="d987bb5b08">
      <path
         d="M -14.203125 28.488281 L 28.125 -13.84375 L 70.453125 28.488281 L 28.125 70.816406 Z M -14.203125 28.488281 "
         id="path3" />
    </clipPath>
    <clipPath
       id="6625802acc">
      <path
         d="M 27.382812 28.027344 L 59.398438 28.027344 L 59.398438 60.042969 L 27.382812 60.042969 Z M 27.382812 28.027344 "
         id="path4" />
    </clipPath>
    <clipPath
       id="e0b1732b6d">
      <path
         d="M 113 61 L 124 61 L 124 74.914062 L 113 74.914062 Z M 113 61 "
         id="path5" />
    </clipPath>
    <clipPath
       id="1a72155cb4">
      <path
         d="M 133 61 L 145 61 L 145 74.914062 L 133 74.914062 Z M 133 61 "
         id="path6" />
    </clipPath>
    <clipPath
       id="ee7ada8068">
      <path
         d="M 154 61 L 170 61 L 170 74.914062 L 154 74.914062 Z M 154 61 "
         id="path7" />
    </clipPath>
    <clipPath
       id="a12a3b10a7">
      <path
         d="M 180 61 L 189 61 L 189 74.914062 L 180 74.914062 Z M 180 61 "
         id="path8" />
    </clipPath>
    <clipPath
       id="4f792516f5">
      <path
         d="M 199 61 L 210 61 L 210 74.914062 L 199 74.914062 Z M 199 61 "
         id="path9" />
    </clipPath>
  </defs>
  <g
     id="a4aafcd275">
    <g
       clip-rule="nonzero"
       clip-path="url(#81838fe0b3)"
       id="g12">
      <g
         clip-rule="nonzero"
         clip-path="url(#c88b2df4ad)"
         id="g11">
        <g
           clip-rule="nonzero"
           clip-path="url(#d987bb5b08)"
           id="g10">
          <path
             id="path10"
             style="fill:#148d28;fill-opacity:1;fill-rule:nonzero;stroke:none"
             d="m 17.359863,0.25781249 c -0.714844,0.011719 -1.414063,0.11767578 -2.097656,0.32080078 -0.6875,0.199219 -1.33252,0.49218753 -1.937989,0.86718753 -0.609375,0.378907 -1.151855,0.8320309 -1.63623,1.3593749 -0.871094,0.910156 -1.507812,1.9643549 -1.9101562,3.1596679 -0.402344,1.195312 -0.527344,2.4223632 -0.375,3.6723632 -1.242188,-0.144531 -2.4541014,-0.024414 -3.6416014,0.3662112 -1.183594,0.394532 -2.2299805,1.02002 -3.1362305,1.879394 l -0.1245117,0.124512 c -0.5,0.484376 -0.9296884,1.028321 -1.2890624,1.625977 -0.35937632,0.601563 -0.63378859,1.233887 -0.82910159,1.905761 -0.191406,0.671876 -0.29296869,1.355957 -0.30468749,2.055176 -0.015625,0.695312 0.06347631,1.382812 0.23144531,2.0625 0.453125,1.703125 1.26171817,3.213868 2.42578117,4.538086 1.675781,1.722657 4.956542,3.516601 16.5659178,3.735351 0.292969,0.0078 0.578125,0.0078 0.855469,0.01172 0.160156,0.363282 0.163754,0.726563 0.0073,1.089844 -0.289062,0.0078 -0.577148,0.01075 -0.870117,0.02637 C 5.7037778,29.464327 3.1127932,32.413574 2.2573242,33.382324 1.2651372,34.503418 0.59765649,35.79248 0.25781249,37.249511 0.08204369,37.940919 -5.1875e-8,38.641112 0.01171875,39.355956 c 0.015625,0.714843 0.12060446,1.410156 0.32373046,2.097656 0.203124,0.683594 0.48925787,1.327149 0.86425779,1.936524 0.378906,0.605469 0.8242192,1.15332 1.3476562,1.637695 0.910156,0.875 1.9643559,1.511718 3.1596679,1.910156 1.195313,0.402344 2.4213869,0.526368 3.6752929,0.37793 -0.148437,1.238282 -0.026855,2.453613 0.3676758,3.637207 0.3906252,1.1875 1.0156252,2.230469 1.8750002,3.140625 0.484375,0.519531 1.030761,0.968262 1.63623,1.343262 0.605469,0.378906 1.250001,0.668457 1.933594,0.871582 0.683594,0.203125 1.383789,0.312988 2.094726,0.332519 0.714844,0.01563 1.417968,-0.05957 2.109375,-0.231445 1.703124,-0.453125 3.214844,-1.265137 4.535157,-2.433106 1.697873,-1.612004 3.512785,-4.952422 3.733886,-16.53955 -0.0096,-0.02439 -0.01614,-0.05369 -0.01611,-0.08935 0,-0.06049 10e-4,-0.121191 -0.0015,-0.181641 -0.0061,-0.0978 -0.0077,-0.195949 -0.02197,-0.292969 -0.02173,-0.152237 -0.04864,-0.303083 -0.07764,-0.454101 -0.0268,-0.157883 -0.06151,-0.314936 -0.08643,-0.473145 -0.02921,-0.167796 -0.0497,-0.33567 -0.07617,-0.503906 -0.02726,-0.198207 -0.08223,-0.391915 -0.134766,-0.584473 -0.06464,-0.222593 -0.123465,-0.445463 -0.183105,-0.669433 -0.04181,-0.155047 -0.08571,-0.309614 -0.128906,-0.464356 -0.0061,4.86e-4 -0.0128,1.64e-4 -0.01904,0 -0.01224,8.5e-5 -0.02438,-3.44e-4 -0.03662,0 -0.01792,5e-4 -0.03633,0.0015 -0.0542,0.0029 -0.02531,0.0021 -0.04997,0.0057 -0.07471,0.01172 -0.02782,0.0064 -0.05607,0.01261 -0.0835,0.02051 -0.02521,0.0069 -0.0509,0.01381 -0.07617,0.02051 -0.01625,0.0051 -0.03221,0.01068 -0.04834,0.01611 -0.0018,0.0019 -0.0041,0.004 -0.0059,0.0059 -0.261719,0.109375 -0.511719,0.245606 -0.75,0.405762 -0.238281,0.160157 -0.457518,0.340332 -0.660644,0.543457 -0.289062,0.332031 -0.432617,0.713867 -0.436524,1.151367 -0.0039,0.472656 -0.0044,0.945312 -0.01611,1.453125 -0.222657,11.933593 -2.156737,13.848632 -2.828613,14.481445 -0.957031,0.8125 -2.038574,1.378418 -3.253418,1.694824 -0.878906,0.195312 -1.75,0.159668 -2.613281,-0.109863 -0.859375,-0.273437 -1.598145,-0.737793 -2.20752,-1.401856 -0.371094,-0.414062 -0.675781,-0.871094 -0.914062,-1.371094 -0.242187,-0.5 -0.405762,-1.019042 -0.499512,-1.565917 -0.09375,-0.546875 -0.109865,-1.094239 -0.05127,-1.64502 0.0625,-0.550781 0.200196,-1.082519 0.407227,-1.598144 0.08984,-0.265625 0.09766,-0.535156 0.03516,-0.808594 -0.06641,-0.273442 -0.199218,-0.506836 -0.398437,-0.706055 -0.199219,-0.199219 -0.434083,-0.329102 -0.70752,-0.395508 -0.273438,-0.06641 -0.542968,-0.05371 -0.808593,0.03223 -0.5156,0.218743 -1.0507822,0.359375 -1.6054692,0.421875 -0.558594,0.06641 -1.1088869,0.04687 -1.6596679,-0.04687 C 7.0243039,44.238625 6.4965817,44.0708 5.9926757,43.8208 5.4926757,43.574707 5.0346676,43.262207 4.6245116,42.8833 3.9604496,42.273926 3.4995114,41.54248 3.2299804,40.683105 2.9643554,39.827636 2.9296882,38.960937 3.1289062,38.085937 l 0.054199,-0.210938 c 0.222656,-0.953125 0.660156,-1.796386 1.3125,-2.526855 1.652344,-1.902344 6.9580078,-3.079102 14.8798828,-3.313477 0.542969,-0.01563 1.061523,-0.02734 1.573242,-0.03516 0.40625,-0.0039 0.750977,-0.147461 1.040039,-0.436523 0.203125,-0.203125 0.382813,-0.426758 0.539063,-0.665039 0.160156,-0.238282 0.291991,-0.487305 0.401367,-0.75293 0.109374,-0.265625 0.191407,-0.539063 0.246094,-0.820313 0.05469,-0.28125 0.08203,-0.567383 0.08203,-0.852539 -0.0039,-0.289062 -0.03077,-0.569824 -0.08936,-0.851074 -0.05469,-0.28125 -0.141113,-0.554687 -0.250488,-0.820312 -0.109375,-0.261719 -0.245606,-0.515625 -0.405762,-0.75 -0.160157,-0.238281 -0.343261,-0.461426 -0.546386,-0.660645 -0.289063,-0.289063 -0.636719,-0.433594 -1.042969,-0.433594 -0.503906,0 -1.012696,-0.0029 -1.555664,-0.01465 C 7.4214188,24.719289 5.5117187,22.757812 4.8867187,22.113281 4.0742187,21.15625 3.5078119,20.070311 3.1874999,18.855468 2.9843749,17.972655 3.0190432,17.101074 3.2885742,16.237793 c 0.269532,-0.863281 0.7382819,-1.59668 1.4062499,-2.206055 0.414063,-0.367188 0.8710937,-0.672852 1.3710937,-0.911133 0.5,-0.238282 1.0205088,-0.405273 1.5673828,-0.495117 0.546876,-0.09375 1.0927727,-0.109415 1.6435547,-0.04687 0.546875,0.05859 1.0791017,0.194825 1.5908207,0.405762 0.269531,0.08594 0.538085,0.09326 0.811523,0.03076 0.269531,-0.06641 0.507813,-0.199219 0.703125,-0.398437 0.199219,-0.199219 0.333008,-0.432617 0.395508,-0.706055 0.06641,-0.273437 0.05371,-0.542967 -0.03223,-0.808593 C 12.526873,10.586398 12.38623,10.05078 12.32373,9.4921873 12.26123,8.9374993 12.27734,8.3833004 12.375,7.8325194 c 0.09766,-0.554687 0.270019,-1.0781252 0.520019,-1.5820312 0.246094,-0.5 0.561523,-0.9570308 0.94043,-1.3710938 l 0.06299,-0.062988 c 0.609374,-0.640625 1.335938,-1.0854487 2.179688,-1.3432617 0.84375,-0.253906 1.699707,-0.2817374 2.559082,-0.086426 l 0.202148,0.054199 c 0.957031,0.222656 1.800781,0.6572263 2.53125,1.3095703 1.902344,1.675781 3.079102,6.960938 3.313477,14.882812 0.01563,0.511719 0.02295,0.999511 0.03076,1.577637 0.0078,0.40625 0.155762,0.750489 0.440918,1.035645 0.203125,0.203125 0.426758,0.382812 0.665039,0.539062 0.238282,0.160156 0.491699,0.291992 0.757324,0.401367 0.261719,0.109375 0.534668,0.191406 0.815918,0.246094 0.28125,0.05469 0.567383,0.0791 0.852539,0.0791 0.289062,0 0.569825,-0.03174 0.851075,-0.08643 0.28125,-0.05859 0.5542,-0.141113 0.815918,-0.250488 0.265626,-0.113281 0.516113,-0.245605 0.754394,-0.405762 0.238281,-0.160156 0.45752,-0.343262 0.660645,-0.546387 0.289063,-0.328125 0.432617,-0.715332 0.436523,-1.152832 0,-0.472656 0.0039,-0.944824 0.01172,-1.44873 0.226562,-11.9375034 2.176758,-13.8476563 2.833008,-14.4843753 0.953125,-0.8125 2.038086,-1.379883 3.249023,-1.696289 0.878906,-0.195312 1.753906,-0.1596677 2.613281,0.1098633 0.859375,0.269531 1.598144,0.7377924 2.20752,1.4018554 0.371093,0.414063 0.675781,0.8710937 0.914062,1.3710937 0.242188,0.496093 0.405762,1.0205078 0.499512,1.5673828 0.09375,0.546875 0.109857,1.0927737 0.05127,1.6435547 -0.0625,0.5507824 -0.19873,1.0820324 -0.405761,1.5937504 -0.08984,0.269532 -0.09766,0.539551 -0.03516,0.812988 0.06641,0.273438 0.19922,0.508301 0.398438,0.70752 0.199219,0.199218 0.432617,0.327635 0.706055,0.394042 0.273437,0.06641 0.542967,0.05518 0.808593,-0.03076 0.515624,-0.21875 1.051271,-0.359375 1.609864,-0.421875 0.554688,-0.06641 1.108886,-0.05077 1.659667,0.04687 0.550781,0.09375 1.079102,0.265625 1.579102,0.515625 0.503906,0.246094 0.960937,0.558594 1.371094,0.9375 0.660156,0.609375 1.125,1.339356 1.394531,2.19873 0.265625,0.855469 0.300293,1.722168 0.101074,2.597168 l -0.05859,0.210938 c -0.21875,0.957032 -0.655761,1.800782 -1.308105,2.53125 -1.667969,1.890625 -6.961915,3.075195 -14.879883,3.313476 -0.546876,0.01563 -1.061523,0.02295 -1.573242,0.03076 -0.40625,0.0039 -0.754883,0.152832 -1.040039,0.437988 -0.203125,0.203125 -0.381836,0.425293 -0.541992,0.663574 -0.15625,0.238281 -0.289062,0.491699 -0.398437,0.757324 -0.0957,0.232422 -0.431669,0.680997 -0.322266,0.793946 0.01563,0.01613 0.04037,0.02555 0.07617,0.02637 -5.27e-4,4.23e-4 -9.39e-4,0.001 -0.0015,0.0015 0.01498,0.0029 0.03015,0.0033 0.04541,0.0044 0.01923,7e-4 0.03715,0.0053 0.05566,0.01025 0.01585,0.0038 0.03228,0.0059 0.04834,0.0088 0.02268,0.0039 0.0452,0.0084 0.06738,0.01465 0.02241,0.0062 0.04602,0.01308 0.06885,0.01758 0.02649,0.0041 0.05253,0.0053 0.0791,0.0088 0.02662,0.0048 0.05371,0.0086 0.08057,0.01172 0.02286,0.0022 0.04455,0.0063 0.06738,0.0088 0.02614,9.2e-4 0.05198,0.0057 0.07764,0.01025 0.02952,0.0039 0.05869,0.0087 0.08789,0.01465 0.02336,0.0055 0.0481,0.0069 0.07178,0.01025 0.02107,0.0036 0.04168,0.0072 0.06299,0.0088 0.02117,3e-4 0.04201,0.0034 0.06299,0.0059 0.01936,0.0023 0.03921,0.0024 0.05859,0.0044 0.02372,0.0019 0.04686,0.0065 0.07031,0.01025 0.02052,0.0031 0.04099,0.0044 0.06152,0.0073 0.02347,0.0055 0.04586,0.01341 0.06885,0.02051 0.02036,0.0056 0.04164,0.01194 0.06152,0.01904 0.0067,0.0024 0.01389,0.0037 0.02051,0.0059 0.02401,0.0015 0.04792,0.0041 0.07178,0.0059 0.05187,0.0044 0.103554,0.0087 0.155274,0.01465 0.05278,0.0055 0.105483,0.01011 0.158203,0.01611 0.03673,0.0029 0.07309,0.0049 0.109863,0.0073 0.03782,0.0028 0.07641,0.0036 0.114258,0.0059 0.04102,0.0031 0.08059,0.0083 0.121582,0.01172 0.04688,0.0046 0.09367,0.01075 0.140625,0.01465 0.05441,0.0029 0.109603,0.0055 0.164063,0.0073 0.05905,0.0031 0.118216,0.0068 0.177246,0.01025 0.03813,0.0011 0.07612,0.0014 0.114258,0.0015 h 0.08203 c 0.02951,0 0.05985,-2e-6 0.08936,0 0.02552,3e-6 0.05065,-1.9e-5 0.07617,0 0.02545,2.3e-5 0.05072,-1.22e-4 0.07617,0 0.03138,2.16e-4 0.06237,-6.45e-4 0.09375,0 0.01504,3.76e-4 0.03019,7.53e-4 0.04541,0.0015 5.5e-4,-8.17e-4 8.82e-4,-0.0021 0.0015,-0.0029 0.285156,-0.0078 0.578614,-0.01221 0.871582,-0.02783 13.589844,-0.40625 16.175293,-3.359375 17.034668,-4.324219 0.992187,-1.121094 1.660156,-2.413085 2.003906,-3.870117 0.175781,-0.691406 0.257325,-1.394532 0.241699,-2.109375 -0.01172,-0.710938 -0.116211,-1.410156 -0.319336,-2.097656 -0.203125,-0.683593 -0.492187,-1.328125 -0.867187,-1.933593 -0.375,-0.609376 -0.825195,-1.156249 -1.344727,-1.640625 -0.910156,-0.875 -1.964355,-1.511719 -3.159668,-1.910157 -1.199217,-0.4023578 -2.421387,-0.5278324 -3.675293,-0.3793944 0.148437,-1.238281 0.02295,-2.449707 -0.367675,-3.637207 -0.394532,-1.183593 -1.019532,-2.2299804 -1.875,-3.1362304 -0.488282,-0.523437 -1.031249,-0.9726562 -1.640625,-1.3476562 -0.605468,-0.375 -1.250001,-0.66454999 -1.933594,-0.87158199 -0.683594,-0.203124 -1.378419,-0.312501 -2.093262,-0.328125 -0.710938,-0.019532 -1.415039,0.0590818 -2.106445,0.22705078 -1.70704,0.45316181 -3.217774,1.26220671 -4.538086,2.43017571 l -0.0791,0.073242 c -1.699214,1.703125 -3.441406,5.0595693 -3.65625,16.4970705 -0.0039,0.285156 -0.0073,0.558106 -0.0073,0.851074 -0.363281,0.160157 -0.730957,0.163755 -1.094238,0.0073 -0.0039,-0.289063 -0.01123,-0.578125 -0.01904,-0.878906 C 27.261469,5.9645118 24.3125,3.367676 23.34375,2.512207 22.21875,1.520019 20.930176,0.85498046 19.469238,0.51123046 18.777832,0.33154246 18.074707,0.24609449 17.359863,0.25781249 Z m 9.41748,33.35009651 v 0.0015 c 0.0024,3.63e-4 0.0049,7.99e-4 0.0073,0.0015 -0.0024,-0.0011 -0.0049,-0.0018 -0.0073,-0.0029 z"
             sodipodi:nodetypes="scccsccccccccccccccccccccccccsccccccccccccccsccccccsccccccccscccsscccccccccccscsscccccscccscsccccccccccccccccccsccssccscccccsccscccsscccccccccccscssccccccccccccccsccccscccccccccccssscccccccccccccccccccccccccccsccccc" />
        </g>
      </g>
    </g>
    <g
       clip-rule="nonzero"
       clip-path="url(#6625802acc)"
       id="g13" />
    <g
       style="fill:#000000;fill-opacity:1;"
       id="g15">
      <g
         transform="translate(29.377354, 59.174137)"
         id="g14">
        <path
           style="stroke:none"
           d="M 15.453125 0.40625 C 12.847656 0.40625 10.550781 -0.132812 8.5625 -1.21875 C 6.582031 -2.300781 5.03125 -3.925781 3.90625 -6.09375 C 2.78125 -8.269531 2.21875 -10.953125 2.21875 -14.140625 C 2.21875 -17.328125 2.78125 -20.003906 3.90625 -22.171875 C 5.03125 -24.347656 6.582031 -25.976562 8.5625 -27.0625 C 10.550781 -28.144531 12.847656 -28.6875 15.453125 -28.6875 C 18.179688 -28.6875 20.492188 -28.15625 22.390625 -27.09375 C 24.296875 -26.03125 25.65625 -24.410156 26.46875 -22.234375 L 22.390625 -19.734375 L 21.90625 -19.75 C 21.300781 -21.21875 20.476562 -22.269531 19.4375 -22.90625 C 18.394531 -23.550781 17.066406 -23.875 15.453125 -23.875 C 13.109375 -23.875 11.273438 -23.097656 9.953125 -21.546875 C 8.640625 -19.992188 7.984375 -17.523438 7.984375 -14.140625 C 7.984375 -10.773438 8.640625 -8.316406 9.953125 -6.765625 C 11.273438 -5.210938 13.109375 -4.4375 15.453125 -4.4375 C 19.128906 -4.4375 21.382812 -6.222656 22.21875 -9.796875 L 22.703125 -9.796875 L 26.8125 -7.640625 C 26.039062 -4.960938 24.71875 -2.953125 22.84375 -1.609375 C 20.976562 -0.265625 18.515625 0.40625 15.453125 0.40625 Z M 15.453125 0.40625 "
           id="path13" />
      </g>
    </g>
    <g
       style="fill:#000000;fill-opacity:1;"
       id="g17">
      <g
         transform="translate(63.06051, 59.174137)"
         id="g16">
        <path
           style="stroke:none"
           d="M 9.265625 -28.28125 L 9.265625 -4.6875 L 21.984375 -4.6875 L 21.984375 0 L 3.671875 0 L 3.671875 -28.28125 Z M 9.265625 -28.28125 "
           id="path15" />
      </g>
    </g>
    <g
       style="fill:#000000;fill-opacity:1;"
       id="g19">
      <g
         transform="translate(91.907617, 59.174137)"
         id="g18">
        <path
           style="stroke:none"
           d="M 15.421875 0.40625 C 12.828125 0.40625 10.539062 -0.117188 8.5625 -1.171875 C 6.582031 -2.234375 5.03125 -3.847656 3.90625 -6.015625 C 2.78125 -8.191406 2.21875 -10.898438 2.21875 -14.140625 C 2.21875 -17.378906 2.78125 -20.082031 3.90625 -22.25 C 5.03125 -24.425781 6.582031 -26.039062 8.5625 -27.09375 C 10.539062 -28.15625 12.828125 -28.6875 15.421875 -28.6875 C 18.015625 -28.6875 20.296875 -28.160156 22.265625 -27.109375 C 24.242188 -26.066406 25.789062 -24.453125 26.90625 -22.265625 C 28.019531 -20.085938 28.578125 -17.378906 28.578125 -14.140625 C 28.578125 -10.898438 28.019531 -8.191406 26.90625 -6.015625 C 25.789062 -3.835938 24.242188 -2.222656 22.265625 -1.171875 C 20.296875 -0.117188 18.015625 0.40625 15.421875 0.40625 Z M 15.421875 -4.453125 C 17.816406 -4.453125 19.644531 -5.222656 20.90625 -6.765625 C 22.175781 -8.304688 22.8125 -10.765625 22.8125 -14.140625 C 22.8125 -17.523438 22.175781 -19.988281 20.90625 -21.53125 C 19.644531 -23.082031 17.816406 -23.859375 15.421875 -23.859375 C 13.003906 -23.859375 11.160156 -23.082031 9.890625 -21.53125 C 8.617188 -19.988281 7.984375 -17.523438 7.984375 -14.140625 C 7.984375 -10.765625 8.617188 -8.304688 9.890625 -6.765625 C 11.160156 -5.222656 13.003906 -4.453125 15.421875 -4.453125 Z M 15.421875 -4.453125 "
           id="path17" />
      </g>
    </g>
    <g
       style="fill:#000000;fill-opacity:1;"
       id="g21">
      <g
         transform="translate(128.666501, 59.174137)"
         id="g20">
        <path
           style="stroke:none"
           d="M 16.8125 0 L 10.0625 0 L 0.5 -28.28125 L 6.4375 -28.28125 L 13.3125 -7.203125 L 13.796875 -7.203125 L 20.5625 -28.28125 L 26.359375 -28.28125 Z M 16.8125 0 "
           id="path19" />
      </g>
    </g>
    <g
       style="fill:#000000;fill-opacity:1;"
       id="g23">
      <g
         transform="translate(161.459818, 59.174137)"
         id="g22">
        <path
           style="stroke:none"
           d="M 9.265625 -12.421875 L 9.265625 -4.6875 L 22.765625 -4.6875 L 22.765625 0 L 3.671875 0 L 3.671875 -28.28125 L 22.46875 -28.28125 L 22.46875 -23.609375 L 9.265625 -23.609375 L 9.265625 -16.984375 L 20.796875 -16.984375 L 20.796875 -12.421875 Z M 9.265625 -12.421875 "
           id="path21" />
      </g>
    </g>
    <g
       style="fill:#000000;fill-opacity:1;"
       id="g25">
      <g
         transform="translate(191.719058, 59.174137)"
         id="g24">
        <path
           style="stroke:none"
           d="M 3.671875 0 L 3.671875 -28.28125 L 15.03125 -28.28125 C 17.957031 -28.28125 20.164062 -27.609375 21.65625 -26.265625 C 23.144531 -24.921875 23.890625 -23.0625 23.890625 -20.6875 C 23.890625 -18.96875 23.453125 -17.5625 22.578125 -16.46875 C 21.710938 -15.375 20.414062 -14.535156 18.6875 -13.953125 L 18.6875 -13.546875 C 19.582031 -13.160156 20.300781 -12.585938 20.84375 -11.828125 C 21.394531 -11.066406 21.914062 -9.9375 22.40625 -8.4375 L 25.234375 0 L 19.484375 0 L 16.71875 -8.453125 C 16.4375 -9.304688 16.117188 -9.96875 15.765625 -10.4375 C 15.410156 -10.90625 14.957031 -11.242188 14.40625 -11.453125 C 13.851562 -11.671875 13.140625 -11.78125 12.265625 -11.78125 L 9.265625 -11.78125 L 9.265625 0 Z M 14.359375 -16.21875 C 17.066406 -16.21875 18.421875 -17.476562 18.421875 -20 C 18.421875 -22.570312 17.066406 -23.859375 14.359375 -23.859375 L 9.265625 -23.859375 L 9.265625 -16.21875 Z M 14.359375 -16.21875 "
           id="path23" />
      </g>
    </g>
    <g
       clip-rule="nonzero"
       clip-path="url(#e0b1732b6d)"
       id="g28">
      <g
         style="fill:#000000;fill-opacity:1;"
         id="g27">
        <g
           transform="translate(113.4027, 74.053785)"
           id="g26">
          <path
             style="stroke:none"
             d="M 9.765625 -12.1875 L 9.765625 -10.171875 L 6.25 -10.171875 L 6.25 0 L 3.859375 0 L 3.859375 -10.171875 L 0.328125 -10.171875 L 0.328125 -12.1875 Z M 9.765625 -12.1875 "
             id="path25" />
        </g>
      </g>
    </g>
    <g
       clip-rule="nonzero"
       clip-path="url(#1a72155cb4)"
       id="g31">
      <g
         style="fill:#000000;fill-opacity:1;"
         id="g30">
        <g
           transform="translate(132.286757, 74.053785)"
           id="g29">
          <path
             style="stroke:none"
             d="M 6.640625 0.171875 C 5.523438 0.171875 4.539062 -0.0507812 3.6875 -0.5 C 2.832031 -0.957031 2.160156 -1.65625 1.671875 -2.59375 C 1.191406 -3.53125 0.953125 -4.695312 0.953125 -6.09375 C 0.953125 -7.488281 1.191406 -8.65625 1.671875 -9.59375 C 2.160156 -10.53125 2.832031 -11.222656 3.6875 -11.671875 C 4.539062 -12.128906 5.523438 -12.359375 6.640625 -12.359375 C 7.765625 -12.359375 8.75 -12.128906 9.59375 -11.671875 C 10.445312 -11.222656 11.113281 -10.53125 11.59375 -9.59375 C 12.070312 -8.65625 12.3125 -7.488281 12.3125 -6.09375 C 12.3125 -4.695312 12.070312 -3.53125 11.59375 -2.59375 C 11.113281 -1.65625 10.445312 -0.957031 9.59375 -0.5 C 8.75 -0.0507812 7.765625 0.171875 6.640625 0.171875 Z M 6.640625 -1.921875 C 7.679688 -1.921875 8.472656 -2.25 9.015625 -2.90625 C 9.554688 -3.570312 9.828125 -4.632812 9.828125 -6.09375 C 9.828125 -7.550781 9.554688 -8.613281 9.015625 -9.28125 C 8.472656 -9.945312 7.679688 -10.28125 6.640625 -10.28125 C 5.609375 -10.28125 4.816406 -9.945312 4.265625 -9.28125 C 3.710938 -8.613281 3.4375 -7.550781 3.4375 -6.09375 C 3.4375 -4.632812 3.710938 -3.570312 4.265625 -2.90625 C 4.816406 -2.25 5.609375 -1.921875 6.640625 -1.921875 Z M 6.640625 -1.921875 "
             id="path28" />
        </g>
      </g>
    </g>
    <g
       clip-rule="nonzero"
       clip-path="url(#ee7ada8068)"
       id="g34">
      <g
         style="fill:#000000;fill-opacity:1;"
         id="g33">
        <g
           transform="translate(154.347475, 74.053785)"
           id="g32">
          <path
             style="stroke:none"
             d="M 5.828125 0 L 3.125 0 L 0.328125 -12.1875 L 2.734375 -12.1875 L 4.578125 -3.625 L 4.78125 -3.625 L 6.96875 -12.1875 L 9.03125 -12.1875 L 11.25 -3.625 L 11.46875 -3.625 L 13.3125 -12.1875 L 15.640625 -12.1875 L 12.84375 0 L 10.15625 0 L 8.015625 -7.859375 L 7.84375 -7.859375 Z M 5.828125 0 "
             id="path31" />
        </g>
      </g>
    </g>
    <g
       clip-rule="nonzero"
       clip-path="url(#a12a3b10a7)"
       id="g37">
      <g
         style="fill:#000000;fill-opacity:1;"
         id="g36">
        <g
           transform="translate(179.084593, 74.053785)"
           id="g35">
          <path
             style="stroke:none"
             d="M 4 -5.359375 L 4 -2.015625 L 9.8125 -2.015625 L 9.8125 0 L 1.578125 0 L 1.578125 -12.1875 L 9.6875 -12.1875 L 9.6875 -10.171875 L 4 -10.171875 L 4 -7.328125 L 8.96875 -7.328125 L 8.96875 -5.359375 Z M 4 -5.359375 "
             id="path34" />
        </g>
      </g>
    </g>
    <g
       clip-rule="nonzero"
       clip-path="url(#4f792516f5)"
       id="g40">
      <g
         style="fill:#000000;fill-opacity:1;"
         id="g39">
        <g
           transform="translate(198.343846, 74.053785)"
           id="g38">
          <path
             style="stroke:none"
             d="M 1.578125 0 L 1.578125 -12.1875 L 6.484375 -12.1875 C 7.742188 -12.1875 8.691406 -11.894531 9.328125 -11.3125 C 9.972656 -10.738281 10.296875 -9.941406 10.296875 -8.921875 C 10.296875 -8.179688 10.109375 -7.570312 9.734375 -7.09375 C 9.359375 -6.625 8.800781 -6.265625 8.0625 -6.015625 L 8.0625 -5.84375 C 8.4375 -5.675781 8.742188 -5.425781 8.984375 -5.09375 C 9.222656 -4.769531 9.445312 -4.285156 9.65625 -3.640625 L 10.875 0 L 8.390625 0 L 7.203125 -3.640625 C 7.078125 -4.003906 6.9375 -4.285156 6.78125 -4.484375 C 6.632812 -4.691406 6.441406 -4.84375 6.203125 -4.9375 C 5.972656 -5.03125 5.664062 -5.078125 5.28125 -5.078125 L 4 -5.078125 L 4 0 Z M 6.1875 -6.984375 C 7.351562 -6.984375 7.9375 -7.53125 7.9375 -8.625 C 7.9375 -9.726562 7.351562 -10.28125 6.1875 -10.28125 L 4 -10.28125 L 4 -6.984375 Z M 6.1875 -6.984375 "
             id="path37" />
        </g>
      </g>
    </g>
  </g>
</svg>
